<?xml version="1.0" encoding="UTF-8" standalone="no"?>
<!-- Created with Inkscape (http://www.inkscape.org/) -->

<svg
   width="283.23645mm"
   height="113.71549mm"
   viewBox="0 0 283.23645 113.71549"
   version="1.1"
   id="svg1"
   xmlns="http://www.w3.org/2000/svg"
   xmlns:svg="http://www.w3.org/2000/svg">
  <defs
     id="defs1" />
  <g
     id="layer1"
     transform="translate(47.625001,-55.827084)">
    <path
       style="fill:#025b77;stroke-width:0.264583"
       d="m 32.2039,169.03451 c -6.72624,-1.76227 -11.246596,-6.97487 -12.239543,-14.11389 -0.852032,-6.1259 1.999004,-12.42902 7.153373,-15.81478 9.376751,-6.15932 21.901854,-1.90012 25.345337,8.61877 0.83535,2.55177 1.037719,6.26371 0.484092,8.87942 -1.252265,5.91653 -6.343182,11.20167 -12.096316,12.5578 -2.350577,0.55408 -6.266235,0.49642 -8.646943,-0.12732 z m 7.219016,-5.38181 c 4.24113,-1.13291 7.108388,-4.3565 7.830648,-8.80383 1.21163,-7.46065 -5.227349,-14.14454 -12.36014,-12.83028 -5.313876,0.97912 -9.09655,5.44579 -9.09655,10.74141 0,4.41954 2.212023,8.21121 5.8859,10.08915 2.284328,1.16766 5.231612,1.47363 7.740142,0.80355 z m -85.195832,5.40617 C -47.625,168.90715 -47.625,168.90715 -47.625,160.57278 c 0,-8.33438 0,-8.33438 9.392709,-8.46667 9.392708,-0.13229 9.392708,-0.13229 10.285957,-0.76937 1.286798,-0.91776 1.98968,-2.65322 1.766504,-4.36161 -0.217279,-1.66324 -0.995738,-2.85254 -2.390624,-3.65232 -1.038096,-0.5952 -1.272646,-0.61249 -10.058712,-0.7417 -8.995834,-0.13229 -8.995834,-0.13229 -8.995834,-2.77813 0,-2.64583 0,-2.64583 8.466667,-2.72019 5.303652,-0.0466 9.124238,0.0349 10.226834,0.218 5.364522,0.89103 8.816228,4.8561 8.759983,10.06286 -0.03949,3.65559 -1.297808,6.48402 -3.700976,8.31897 -2.554694,1.95066 -5.975834,2.59669 -13.036883,2.46185 -2.255573,-0.0431 -4.24987,0.0165 -4.431771,0.13228 -0.246387,0.15689 -0.330729,1.54884 -0.330729,5.45833 0,4.54119 -0.05635,5.26937 -0.418512,5.40835 -0.437505,0.16788 -0.664361,0.16267 -3.682529,-0.0846 z m 116.734019,0.0774 c -0.101785,-0.10178 -0.185062,-7.28515 -0.185062,-15.96305 0,-11.91899 0.07765,-15.85564 0.3175,-16.09548 0.510024,-0.51003 4.569422,-0.41987 5.102613,0.11333 0.236959,0.23695 3.691202,4.6125 7.6761,9.72343 8.953061,11.48299 8.447545,10.87304 8.820412,10.64259 0.226131,-0.13975 0.308374,-2.90551 0.308374,-10.37038 0,-10.17979 0,-10.17979 2.844271,-10.1047 2.844271,0.0751 2.844271,0.0751 2.844271,16.08239 0,16.00729 0,16.00729 -1.846548,16.08691 -1.015603,0.0438 -2.113143,0.0127 -2.43898,-0.0691 -0.530471,-0.13314 -6.696395,-7.62628 -12.636394,-15.35638 -3.088235,-4.01891 -4.69107,-5.95312 -4.933222,-5.95312 -0.127378,0 -0.262671,4.7913 -0.30071,10.64948 -0.06915,10.64947 -0.06915,10.64947 -2.728354,10.72429 -1.462566,0.0411 -2.742488,-0.008 -2.844271,-0.11024 z m 54.054517,-0.0907 c -7.54062,-0.13851 -7.54062,-0.13851 -7.54062,-9.26663 0,-9.12813 0,-9.12813 11.64166,-9.12813 11.64167,0 11.64167,0 11.64167,2.64583 0,2.64584 0,2.64584 -8.46667,2.77813 -8.46666,0.13229 -8.46666,0.13229 -8.46666,3.70417 0,3.57187 0,3.57187 9.12812,3.71288 5.02047,0.0776 9.15789,0.16685 9.19427,0.19844 0.0364,0.0316 0.0661,1.23531 0.0661,2.67495 0,2.14277 -0.0759,2.64666 -0.41852,2.77813 -0.42764,0.1641 -3.49532,0.14622 -16.7794,-0.0978 z m 35.17501,-0.0151 c -0.26646,-0.16484 -0.52917,-16.20818 -0.27221,-16.62395 0.11509,-0.18621 3.24182,-0.30594 9.31187,-0.35657 9.1386,-0.0762 9.1386,-0.0762 10.11485,-0.73769 0.53694,-0.3638 1.22802,-1.17736 1.53574,-1.80792 1.07663,-2.20616 0.0198,-5.38953 -2.10623,-6.34439 -0.85393,-0.38352 -2.00694,-0.42754 -9.30903,-0.35535 -5.46679,0.054 -8.58803,-0.0148 -9.07159,-0.2 -0.73722,-0.28238 -0.73722,-0.28238 -0.66146,-2.86496 0.0758,-2.58259 0.0758,-2.58259 8.54243,-2.65566 5.08453,-0.0439 9.20651,0.0401 10.31875,0.21029 6.08109,0.93036 9.46007,5.52929 8.57421,11.66984 -0.52387,3.6313 -2.81601,6.62274 -5.96267,7.78179 -0.70874,0.26106 -1.39958,0.57189 -1.53519,0.69072 -0.14487,0.12694 0.12797,0.68142 0.66145,1.34428 2.37406,2.94975 7.39032,9.85092 7.39032,10.16731 0,0.27378 -0.59423,0.35505 -2.57969,0.35281 -1.41882,-0.002 -3.03299,-0.0778 -3.58702,-0.16937 -1.066,-0.17616 -1.04279,-0.14734 -7.17357,-8.90567 -0.69373,-0.99104 -1.56541,-1.91751 -1.93707,-2.05882 -0.37167,-0.1413 -1.99764,-0.22342 -3.61327,-0.18247 -2.9375,0.0744 -2.9375,0.0744 -2.98,5.45271 -0.0234,2.95804 -0.11138,5.44713 -0.19556,5.53132 -0.19463,0.19464 -5.15956,0.25073 -5.46506,0.0618 z m 40.76041,-0.11176 c 0,-0.22111 0.846,-2.21919 1.88005,-4.44017 2.86522,-6.15429 5.42356,-11.81057 8.82874,-19.51983 1.70249,-3.85435 3.26644,-7.2758 3.47546,-7.60322 0.3524,-0.55204 0.57147,-0.59531 3.01366,-0.59531 2.43948,0 2.66239,0.0439 3.02384,0.59552 0.2146,0.32754 1.59872,3.27434 3.07584,6.54844 1.47708,3.2741 4.63798,10.1674 7.02421,15.31844 2.38625,5.15105 4.33861,9.53944 4.33861,9.752 0,0.56226 -5.89844,0.37769 -6.43808,-0.20146 -0.20254,-0.21738 -0.75317,-1.34774 -1.22357,-2.5119 -1.49368,-3.69644 -0.34004,-3.30729 -9.80472,-3.30729 -7.51886,0 -8.21713,0.0381 -8.47798,0.46302 -0.15631,0.25466 -0.78555,1.65364 -1.39827,3.10885 -1.11403,2.64583 -1.11403,2.64583 -4.2159,2.72038 -2.63117,0.0632 -3.10189,0.0135 -3.10189,-0.32747 z m 22.36559,-11.79907 c 0.0945,-0.15293 -0.84227,-2.50441 -2.08171,-5.22552 -1.23947,-2.72112 -2.43838,-5.40254 -2.66423,-5.95871 -0.48373,-1.19121 -0.69937,-1.1255 -1.32289,0.40313 -0.25513,0.62549 -0.63301,1.47433 -0.83971,1.88631 -0.20669,0.41197 -0.37581,0.86583 -0.37581,1.00857 0,0.14274 -0.28713,0.87723 -0.63807,1.6322 -1.08791,2.3405 -2.27235,5.24938 -2.27235,5.5808 0,0.83511 0.65067,0.95126 5.32898,0.95126 2.99534,0 4.75615,-0.10062 4.86579,-0.27804 z M -3.6791584,153.26015 c -0.1114849,-9.26101 -0.09175,-15.87751 0.047773,-16.01703 0.1307492,-0.13075 1.4775498,-0.20358 2.99288728,-0.16185 2.75516442,0.0759 2.75516442,0.0759 2.82337662,16.01703 0.06821,15.94114 0.06821,15.94114 -2.80293756,15.94114 -2.87114714,0 -2.87114714,0 -3.06109934,-15.77929 z M 117.45573,142.22944 c -0.0742,-0.19342 -0.10025,-1.41381 -0.0578,-2.71198 0.0771,-2.36031 0.0771,-2.36031 12.23066,-2.42916 9.54736,-0.0541 12.19894,0.003 12.36522,0.26459 0.25191,0.39681 0.28071,2.8399 0.0499,4.23603 -0.164,0.99219 -0.164,0.99219 -12.30852,0.99219 -9.85721,0 -12.16993,-0.0662 -12.27947,-0.35167 z"
       id="path29" />
    <g
       id="g26"
       transform="matrix(0.26458333,0,0,0.26458333,-53.320861,51.980843)">
      <path
         style="fill:#2fa0b5"
         d="M 857.96169,268.08991 C 822.36464,246.28314 752.87364,200.50945 719.5,176.88525 c -22.18038,-15.70083 -19.93288,-14.53127 -23.67804,-12.32156 -1.82708,1.07801 -6.93029,4.62906 -11.34048,7.89123 -4.41018,3.26217 -11.27268,8.14815 -15.25,10.85773 -3.97731,2.70959 -7.22738,5.63459 -7.22237,6.5 0.005,0.86542 4.53316,7.64849 10.06257,15.07349 5.52941,7.425 10.9879,15.00439 12.12998,16.84309 2.23993,3.60616 2.24596,3.60678 11.70069,1.19934 11.66923,-2.97132 25.68992,5.62959 29.08162,17.83994 2.36075,8.49889 0.0381,17.34313 -6.29055,23.95295 -13.7147,14.3241 -37.63961,7.19179 -41.71422,-12.43553 -0.76895,-3.704 -1.82963,-5.89057 -3.30572,-6.81471 C 672.47807,244.72281 660.925,240.67113 648,236.4675 c -12.925,-4.20364 -26.2,-8.55542 -29.5,-9.67061 -10.30206,-3.48145 -24.94337,-7.88743 -26.25,-7.89935 -0.6875,-0.006 6.2684,-0.92724 6.2684,0.45956 0,0.81953 -52.8993,19.37096 -60.09388,21.61128 -2.89323,0.90092 -3.1405,1.37769 -4.17253,8.0452 -2.156,13.92891 -10.38664,21.97576 -23.21936,22.70088 -5.43514,0.30711 -7.54248,-0.0406 -11.11936,-1.83472 C 490.17651,264.99592 485,256.96223 485,246.73511 c 0,-7.6383 2.49776,-13.25906 8.16887,-18.38256 5.35494,-4.83788 9.53624,-6.46641 16.60267,-6.46641 7.1636,0 15.05732,3.598 18.87511,8.60338 1.4249,1.86814 3.20654,3.39662 3.9592,3.39662 0.75266,0 10.71175,-3.08891 22.13131,-6.86426 27.80462,-9.19229 32.46498,-12.28498 35.0937,-13.11128 1.76354,-0.55434 -77.11897,-82.02446 -79.05055,-82.02446 -2.31092,0 -64.83998,64.60002 -84.36797,87.16224 -17.24889,19.92898 -41.33714,45.05036 -41.38347,43.15836 -0.0581,-2.37015 24.76143,-37.22864 24.27108,-35.26182 -0.37561,1.50659 -16.4925,-14.51501 -28.29995,-23.79529 -1.925,-1.51299 -8.72741,-6.91622 -15.11646,-12.00719 -6.38906,-5.09096 -12.13604,-9.2563 -12.77107,-9.2563 -0.63503,0 -9.35762,4.88072 -19.38353,10.84604 -26.78973,15.93962 -40.96796,23.77677 -62.47894,34.5358 -19.25,9.62817 -19.25,9.62817 -19.25977,16.87317 -0.0123,9.14692 -2.86296,15.70252 -9.28688,21.35708 -7.44791,6.55592 -16.31391,8.10255 -24.70335,4.30937 -21.33384,-9.64581 -21.10321,-38.45951 0.37968,-47.43563 4.56892,-1.90902 12.68766,-1.90236 17.27456,0.0142 1.9745,0.825 4.17592,1.5 4.89203,1.5 1.20838,0 21.4238,-21.55281 85.31048,-90.95438 13.94621,-15.15009 25.83535,-27.72116 26.42031,-27.93572 0.58496,-0.21456 10.09942,8.90467 21.14325,20.26495 11.04383,11.36029 20.58763,20.64833 21.20845,20.64011 1.42876,-0.0189 52.64837,-56.022361 82.37124,-91.529077 8.91273,-10.647078 26.97656,-32.539875 34.96176,-39.509097 0.63741,-0.556309 7.61324,8.099564 15.03824,16.743495 7.425,8.64393 30.33808,35.080521 50.91795,58.747979 20.57988,23.66746 40.14485,46.29424 43.47772,50.28174 3.33287,3.9875 6.81995,7.25 7.74906,7.25 1.45361,0 36.84971,-39.57635 63.27704,-70.749998 4.31291,-5.0875 8.16771,-9.25 8.56623,-9.25 0.39851,0 9.90175,11.105568 21.11829,24.67904 11.21654,13.573468 33.85812,40.910968 50.31461,60.749998 40.93464,49.3485 81.96452,99.54349 93.36036,114.21487 3.13835,4.0404 4.02381,6.35609 2.43043,6.35609 -0.43358,0 -5.04608,-2.6083 -10.25,-5.79623 z M 866,270.28005 c 0,-0.75684 -2.98989,-4.55903 -20.35242,-25.88184 -7.61883,-9.35664 -18.39341,-22.63707 -23.94351,-29.51207 -5.55009,-6.875 -25.42639,-30.95 -44.16954,-53.5 -18.74316,-22.55 -43.4785,-52.38008 -54.96742,-66.289076 -11.48893,-13.908993 -21.1567,-24.933993 -21.48395,-24.5 -0.32725,0.433993 -0.44709,21.152757 -0.26631,46.041696 0.32868,45.25262 0.32868,45.25262 10.1844,52.5 17.75204,13.05392 59.30724,41.48664 81.99875,56.10484 37.0241,23.85145 71.50549,45.64254 72.22304,45.64254 0.42733,0 0.77696,-0.27274 0.77696,-0.60609 z M 709.46461,260.02521 c 8.9133,-5.14073 9.07506,-18.92823 0.29883,-25.46976 -3.98579,-2.97088 -13.26114,-3.40973 -17.37693,-0.82216 -3.38712,2.12945 -7.39962,9.33145 -7.36455,13.21858 0.0278,3.08077 3.14507,10.00726 5.31009,11.79885 5.03462,4.16625 13.17811,4.70871 19.13256,1.27449 z m -475.4265,-0.38907 c 3.25955,-1.64369 5.0682,-3.45234 6.71189,-6.71189 2.83826,-5.62844 2.83294,-8.62119 -0.0249,-14.02549 -6.71019,-12.68918 -25.69217,-9.86678 -28.66689,4.26243 -1.95552,9.28828 5.43954,18.19047 15.47993,18.63476 1.12096,0.0496 4.04596,-0.92231 6.5,-2.15981 z m 283.72103,0.2554 c 4.68526,-2.85663 7.23267,-7.56888 7.23712,-13.38736 0.005,-6.4098 -2.78448,-10.85301 -8.57235,-13.65487 -13.80892,-6.68478 -27.76818,8.15763 -20.15746,21.43273 4.13093,7.20544 14.45552,9.90012 21.49269,5.6095 z m 200.74239,-12.98345 c -479.34254,161.65518 -479.34254,161.65518 0,0 z M 678.35637,226.22628 C 690.6118,223.20119 671.68095,206.87944 665.65851,198.75381 662.54635,194.55603 660,190.68646 660,190.15477 c 0,-1.53907 -26.59067,-35.15597 -33.03861,-41.76863 -3.2178,-3.3 -13.61191,-15 -23.09802,-26 -9.48612,-11 -24.7161,-28.549998 -33.8444,-38.999998 -9.12831,-10.45 -25.28824,-29.125 -35.91096,-41.5 -10.62273,-12.375 -20.00899,-22.658265 -20.85837,-22.8517 -1.26633,-0.288389 -1.42978,0.341663 -0.90799,3.5 0.34998,2.118435 0.64129,27.441978 0.64734,56.27454 C 513,131.23182 513,131.23182 532.75,150.97879 c 14.21565,14.21347 20.59066,19.92268 22.75,20.374 7.27086,1.51969 33.39817,15.40588 65.43303,34.77647 20.69219,12.51199 26.30101,16.08462 45.46249,28.95805 6.35645,4.2705 5.30981,-5.452 6.99225,-5.77362 2.29024,-0.4378 3.6016,4.73796 4.9686,-3.08741 z M 417.5,169.15209 c -21.40679,-19.90331 -23.07475,-21.51069 -43.08048,-41.51595 -10.86275,-10.8625 -20.40725,-19.75 -21.20999,-19.75 -1.10134,0 -1.30615,0.76692 -0.83453,3.125 0.34375,1.71875 0.62834,17.80625 0.63243,35.75 0.008,35.71466 -2.06231,31.70695 27.9618,54.125 2.57811,1.925 7.47703,5.975 10.88648,9 4.5394,5.20751 49.39079,-18.65537 25.64429,-40.73405 z"
         id="path28" />
      <path
         style="fill:#025b77"
         d="m 698.85536,162.92636 c -1.10931,-1.3377 1.87792,-95.820938 2.22784,-95.405006 23.57906,28.027406 90.64564,105.380026 116.77735,137.949966 29.18103,36.37055 50.23921,64.78257 53.41799,69.68399 5.20997,8.03329 -165.11264,-103.41323 -172.42318,-112.22895 z m 19.64615,83.98173 c -479.34252,161.65518 -479.34252,161.65518 0,0 z m -52.10599,-11.82078 c -19.16148,-12.87343 -24.7703,-16.44606 -45.46249,-28.95805 -32.03486,-19.37059 -65.05207,-30.47537 -70.55921,-35.45996 -4.242,-3.83949 -40.03762,-34.8864 -39.77705,-38.20626 0.11327,-1.44318 -0.57784,-120.848882 1.96938,-117.871291 38.51972,45.027982 87.43375,101.017441 117.1292,134.477881 6.13061,6.90789 31.81845,41.18836 32.69687,42.45212 13.81554,19.87615 25.35334,33.35577 23.72382,33.85246 -3.55525,2.61003 -7.71009,8.72746 -10.32563,14.9213 -0.46314,1.09677 0.19049,1.13815 -9.39489,-5.2082 z M 353.27338,181.9105 c -0.66775,-0.55825 -1.5928,-76.57397 -0.95959,-76.92879 1.10609,-0.61981 89.02881,84.93534 89.12316,86.19185 0.0778,1.03619 -31.34198,35.62338 -32.46929,35.53673 -1.00711,-0.0774 -54.63453,-43.85252 -55.69428,-44.79979 z"
         id="path27" />
    </g>
  </g>
</svg>
